<?xml version="1.0" encoding="UTF-8"?>
<svg id="_レイヤー_2" data-name="レイヤー 2" xmlns="http://www.w3.org/2000/svg" viewBox="0 0 200.47 62">
  <defs>
    <style>
      .cls-1 {
        fill: #fff;
      }
    </style>
  </defs>
  <g id="_レイヤー_1-2" data-name="レイヤー 1">
    <g>
      <g>
        <path class="cls-1" d="M96.09,49.68c-1.26-.08-2.62-1.27-3.83-3.31-.36-.61-.72-1.32-1.04-2.08-.7-1.64-1.21-3.5-1.54-5.49,4.67-7.78,9.3-22.39,7.08-26.14-.65-1.11-1.98-1.47-3.03-.85-3.77,2.23-6.56,16.27-4.85,26.91,0,.01-.01.03-.02.03-1.08-.21-1.95.1-2.61.5-1.6.95-2.31,2.67-1.69,3.71.31.53.94.63,1.47.28.95-.63,1.99-1.86,3.04-3.47.34,1.75.81,3.38,1.41,4.83.34.8.7,1.51,1.08,2.17,1.34,2.26,2.91,3.61,4.48,3.68.46.02.52-.75.06-.78ZM85.58,42.62c-.15.1-.26.08-.34-.06-.39-.67.17-1.92,1.26-2.56.58-.34,1.09-.59,1.9-.52-.96,1.45-1.92,2.55-2.81,3.14ZM94.12,12.49c.67-.4,1.51-.14,1.95.6,1.92,3.25-2.16,16.87-6.56,24.6-1.43-10.26,1.22-23.2,4.61-25.2Z"/>
        <path class="cls-1" d="M112.58,32.83c.57-.02,1.01-.38,1.16-.72.15-.37.11-.67-.14-.78-.19-.14-.57-.13-.9.08-.17.09-.27.29-.24.46.04,0,.04,0,.04,0q-.05.05-.1.09c-.18.16-.25.39-.19.59.04.18.15.28.38.27Z"/>
        <path class="cls-1" d="M200.47,23.41l-.35-.69c-1.51.76-3.2,2.05-4.81,3.63-.04-.06-.07-.12-.11-.19-.54-.95-1.18-1.75-1.77-2.51-.15-.19-.29-.37-.43-.55.02-.05.04-.09.06-.13l-.23-.09c-.04-.06-.09-.12-.14-.18,1.49-2.78,1.96-4.54,1.42-5.49-.3-.53-.98-.66-1.59-.32-1.65.94-2.28,3.32-1.31,5.04.26.46.56.89.88,1.31-1.64,3.83-3.8,6.91-5.4,7.68-1.15.55-2.73.56-3.81.07,1.46-1.32,2.46-3.13,2.05-3.97-.26-.55-.88-.66-1.54-.35-1.52.69-2.7,2.57-3.24,5.09-.03-.81-.03-1.66,0-2.52,3.41-4.35,7.68-10.47,10.77-15.93,3.46-6.09,4.83-10.16,3.96-11.99-.63-1.32-1.92-1.67-3.46-.93-2.94,1.4-5.75,5.09-8.02,10.46-2.33,5.54-3.74,12.04-4,17.69l-.15-.1c-.86,1.02-2.15,2.01-2.92,2.27-.67.22-1.07-.05-1.57-.42-.45-.33-1.03-.75-1.83-.49-.98.33-1.89,1.49-2.58,3.11.1-1.11.17-2.19.15-3.03l-.8.02c0,.45-.01.99-.04,1.56-2.11,2.77-4.97,4.59-7.11,4.95.9-1.05,1.45-2.48,1.17-3.59-.29-1.15-1.33-1.66-2.66-1.33-1.35.34-2.25,1.45-2.32,2.72-2.39,1.87-5.64,1.77-6.87.8-.4-.48-.93-.67-1.18-.4-.27.28.1.79.6,1.01.02,2.1-1.76,3.99-2.65,4.1-.18.02-.26-.05-.29-.31-.1-.78.26-1.94.83-2.72l-.65-.45c-.07.09-.13.18-.19.28v.03c-.09.12-.15.24-.22.36-1.03,1.74-2.98,3.71-3.83,3.83-.17.02-.24-.04-.27-.25-.12-.89,1.07-3.96,3.31-6.2l-.56-.54c-.64.64-1.2,1.35-1.67,2.08h-.01c-1.71,1.24-6.69,4.35-8.36,4.37-.39,0-.58-.17-.55-.49.04-.57.39-1.26.39-1.82,0-.53-.47-.96-1-.96-.94.01-2.46.85-4.73,2.73.73-1.21,1.41-2.24,2.71-3.81l-.61-.49c-.16.19-.29.36-.43.53l-.04-.11c-1,.29-4.01,1.27-7.91,2.71.68-1.57,1.16-2.79,1.42-3.43l-.74-.28c-.66.89-4.5,2.63-5.97,2.59-.21,0-.29-.08-.29-.24.02-.77,1.16-1.53,2.32-1.5.43,0,.77.08,1.06.21l.41-.66c-.41-.2-.89-.31-1.46-.32-.37,0-.73.05-1.07.14l-.2-.22c-2.65,2.23-6.09,3.99-7.89,4.06-.45.02-.76-.24-.78-.66-.02-.55.07-1.3,1.06-2.64.18-.11.36-.22.55-.33l-.49-.55c-.23.14-.45.28-.68.42h0s0,0,0,0c-2.65,1.61-5.29,3.19-7.62,4.65-.14-.84-.36-1.63-.56-2.37-.11-.4-.22-.78-.31-1.17,2.46-1.97,3.57-3.41,3.45-4.49-.07-.6-.64-.99-1.33-.92-1.71.2-3.1,1.83-3.17,3.59l-.13-.11c-1.37,1.75-5.21,5.36-7.5,6-.57.16-.82.03-.94-.41-.13-.48-.09-1.07.06-1.65,1.7-.25,2.9-1.22,2.62-2.25-.16-.58-.66-.8-1.29-.62-1.46.4-2.64,3-2.17,4.73.24.87.94,1.2,1.92.93,2.3-.63,5.85-3.88,7.5-5.78.12.79.32,1.58.53,2.35.23.85.46,1.7.6,2.62-4.21,2.68-7.22,4.96-7.05,6.41.1.85,1.03,1.31,2.29,1.17,3.58-.41,5.95-3.5,5.6-7.24,2.03-1.28,4.33-2.66,6.7-4.1-.29.62-.44,1.21-.41,1.78.03.85.71,1.43,1.61,1.39,1.45-.06,3.76-1.05,5.99-2.49-.01.59.43,1,1.07,1.02,1.27.03,3.81-.96,5.43-1.98-.3.74-.68,1.67-1.15,2.72-4.11,1.55-9.06,3.56-13.68,5.8-10.11,4.91-15.39,9.29-15.48,13.05-.06,2.41,2.2,4.23,5.25,4.3,5.7.14,11.12-2.75,16.03-8.55,3.89-4.6,6.72-10.11,8.46-13.99,3.4-1.28,6.17-2.21,7.68-2.7-.94,1.26-1.45,2.16-2,3.14-.17.3-.35.61-.54.94-.25.46.34.69.7.38,2.72-2.28,4.71-3.54,5.53-3.55.17,0,.27.09.27.2,0,.42-.32,1.08-.39,1.75-.07.78.51,1.33,1.36,1.32,1.52-.02,5.2-2.14,7.48-3.62-.71,1.4-1.07,2.66-.99,3.24.08.63.55.99,1.17.91.93-.12,2.16-1.28,3.14-2.46,0,.16,0,.33.02.48.09.67.55,1.05,1.19.97,1.49-.19,3.1-2.48,3.32-4.46,1.62.74,4.48.64,6.75-.92.05.18.11.35.17.51-.15.45-.2.89-.11,1.23.18.73.88,1.09,1.68.88.37-.09.73-.27,1.07-.5,2.27.05,5.43-1.58,7.93-4.43-.18,2.1-.49,4.34-.64,5.12l.79.09c.05-.33.12-.77.19-1.31.59-3.09,1.99-5.75,3.28-6.18.39-.13.66.06,1.11.38.52.37,1.22.89,2.3.53.76-.25,1.88-1.09,2.79-2.01-.06,2.62.13,5.02.61,7.03.11.43.89.25.78-.19-.52-4.26,1.06-8.02,2.98-8.9.32-.14.45-.12.5,0,.24.51-.93,2.34-2.23,3.37-.21.17-.25.47-.04.63,1.26.91,3.49,1,5.07.25,1.74-.83,3.92-3.85,5.61-7.66.06.07.11.14.17.22.6.76,1.2,1.52,1.7,2.41.08.13.14.26.2.4-.25.26-.51.53-.76.82-2.79,3.14-4.25,6.01-3.57,7.23.42.75,1.46.8,2.57.18,2.89-1.63,3.95-4.97,2.7-8.08,1.61-1.62,3.31-2.93,4.82-3.69ZM184.12,11.12c2.19-5.21,4.87-8.74,7.62-10.05,1.15-.55,1.97-.35,2.41.58.73,1.52-.64,5.49-3.92,11.28-2.87,5.06-6.76,10.7-10.02,14.94.33-5.4,1.7-11.52,3.91-16.75ZM95.25,36.05c.16-.04.28-.02.32.13.11.4-.56.91-1.54,1.15.32-.64.76-1.15,1.22-1.28ZM103.04,34.78c-.18-1.54,1.02-3.1,2.46-3.27.27-.03.43.08.45.25.08.71-.86,1.91-2.83,3.55-.03-.18-.06-.35-.08-.53ZM98.59,46.98c-.83.09-1.37-.12-1.41-.49-.13-1.1,2.51-3.08,6.33-5.5.11,3.15-1.91,5.65-4.92,6ZM115.02,52.95c-4.77,5.63-9.95,8.42-15.4,8.28-2.62-.06-4.52-1.55-4.47-3.52.08-3.38,5.26-7.65,15.04-12.38,4.33-2.1,8.93-3.99,12.87-5.48-1.74,3.78-4.43,8.84-8.03,13.1ZM159.51,34.54s0,0,0,0c0,0,0,0,0,0,0,0,0,0,0,0ZM160.35,36.98c-.38.1-.64-.03-.72-.33,0-.04-.02-.09-.02-.13.22.19.47.35.75.46h0ZM161.37,36.43c-.66-.08-1.2-.38-1.53-.89.12-.28.3-.57.51-.83.37-.46.77-.75,1.16-.85.16-.04.28-.04.43-.02l.16-.76c-.23-.05-.51-.04-.77.03-.55.14-1.13.55-1.58,1.13-.06.08-.12.15-.17.23l-.05-.05c-.03-1.02.63-1.93,1.7-2.2.91-.23,1.51.06,1.69.78.26,1.05-.51,2.59-1.54,3.43ZM192.9,17.56c.23-.13.43-.1.51.05.35.62-.04,2.1-1.22,4.38-.1-.15-.19-.3-.28-.46-.76-1.35-.28-3.25.99-3.97ZM192.58,34.51c-.73.41-1.31.42-1.49.1-.46-.81.99-3.56,3.45-6.32.16-.18.33-.37.5-.55.91,2.65-.03,5.4-2.46,6.77Z"/>
      </g>
      <path class="cls-1" d="M5.42,23.75c0,2.46.03,3.4.21,4.55H0c.18-1.15.24-2.2.24-4.47v-13.56c0-1.73-.05-2.59-.21-3.82,1.07.05,1.81.08,3.82.08h7.56c2.3,0,3.17-.03,4.4-.18v4.97c-1.15-.13-2.17-.18-4.37-.18h-6.02v4.29h4.92c2.04,0,3.04-.05,4.19-.18v4.84c-1.15-.13-2.2-.18-4.19-.18h-4.92v3.85Z"/>
      <path class="cls-1" d="M49.81,12.34c-.16,1.23-.21,2.33-.21,3.93v8.09c0,1.81.05,2.88.21,3.93h-5.21v-1.12c0-.13,0-.52.03-.71-1.73,1.62-3.22,2.25-5.44,2.25-1.75,0-3.17-.5-4.16-1.46-1.05-1.05-1.49-2.33-1.49-4.4v-6.57c0-1.52-.08-2.83-.21-3.93h5.44c-.16,1.26-.21,2.36-.21,3.93v5.37c0,1.07.1,1.54.42,1.96.37.47.94.73,1.7.73,1.44,0,2.91-1.02,3.93-2.7v-5.37c0-1.47-.05-2.57-.21-3.93h5.42Z"/>
      <path class="cls-1" d="M62.5,17.05c-1.2-.37-1.86-.5-2.67-.5-1.33,0-2.35.47-3.11,1.41-.5.63-.68,1.18-.78,2.33v4.08c0,1.68.05,2.67.21,3.93h-5.42c.16-1.31.21-2.25.21-3.95v-8.06c0-1.91-.05-2.83-.21-3.95h5.21v2.07c1.28-1.68,2.85-2.38,5.23-2.38.84,0,1.36.05,2.59.32l-1.26,4.71Z"/>
      <path class="cls-1" d="M68.08,22.97c.26,1.36,1.15,1.96,2.9,1.96,1.57,0,2.46-.44,2.46-1.26,0-.39-.21-.73-.58-.94-.37-.21-.71-.32-2.15-.6-1.99-.39-3.01-.65-3.87-.94-1.26-.47-2.12-1.07-2.62-1.86-.42-.71-.65-1.6-.65-2.49,0-3.14,2.64-5.05,7.01-5.05,2.49,0,4.34.55,5.57,1.68.86.76,1.28,1.52,1.7,2.98l-5.05.55c-.13-1.07-.78-1.54-2.2-1.54s-2.2.44-2.2,1.12.55.97,3.14,1.54c2.57.55,3.38.78,4.29,1.26,1.7.84,2.51,2.12,2.51,4,0,1.39-.47,2.64-1.33,3.48-1.26,1.26-3.4,1.91-6.2,1.91-3.3,0-5.63-.89-6.88-2.62-.52-.73-.78-1.36-1.05-2.62l5.18-.58Z"/>
      <path class="cls-1" d="M83.44,21.79c.26,2.12,1.49,3.24,3.56,3.24,1.05,0,1.96-.34,2.64-.97.39-.37.58-.65.78-1.33l4.55,1.28c-.6,1.36-.99,1.96-1.73,2.7-1.49,1.47-3.59,2.23-6.18,2.23s-4.58-.73-6.07-2.23c-1.54-1.57-2.38-3.8-2.38-6.39,0-5.18,3.32-8.61,8.32-8.61,4.08,0,6.94,2.23,7.85,6.12.21.84.31,1.94.39,3.43,0,.11,0,.26.03.52h-11.78ZM90.25,18.18c-.37-1.68-1.49-2.56-3.3-2.56s-2.98.84-3.43,2.56h6.73Z"/>
      <path class="cls-1" d="M106.5,17.37c0-1.26-.76-1.83-2.49-1.83s-2.57.55-2.96,1.83l-5-.81c.52-1.54,1.1-2.38,2.2-3.17,1.41-.99,3.35-1.49,5.89-1.49,1.94,0,3.82.37,4.84.92,1.68.92,2.41,2.36,2.41,4.71v7.07c0,1.6.05,2.54.18,3.72h-5.08v-1.2c-1.47,1.13-2.93,1.57-5.08,1.57-1.99,0-3.48-.47-4.53-1.44-.94-.86-1.44-2.12-1.44-3.56,0-1.65.65-2.96,1.91-3.82,1.33-.94,3.09-1.49,5.44-1.7,1.02-.1,1.81-.13,3.69-.18v-.6ZM106.5,21.32c-2.33.05-3.45.18-4.53.52-.94.32-1.52.97-1.52,1.73,0,.94.78,1.49,2.15,1.49,1.07,0,2.25-.39,2.96-.99.6-.52.94-1.23.94-2.02v-.73Z"/>
      <path class="cls-1" d="M117.1,22.97c.26,1.36,1.15,1.96,2.91,1.96,1.57,0,2.46-.44,2.46-1.26,0-.39-.21-.73-.58-.94-.37-.21-.71-.32-2.15-.6-1.99-.39-3.01-.65-3.87-.94-1.26-.47-2.12-1.07-2.62-1.86-.42-.71-.65-1.6-.65-2.49,0-3.14,2.64-5.05,7.01-5.05,2.49,0,4.35.55,5.57,1.68.86.76,1.28,1.52,1.7,2.98l-5.05.55c-.13-1.07-.78-1.54-2.2-1.54s-2.2.44-2.2,1.12.55.97,3.14,1.54c2.57.55,3.38.78,4.29,1.26,1.7.84,2.51,2.12,2.51,4,0,1.39-.47,2.64-1.33,3.48-1.26,1.26-3.4,1.91-6.2,1.91-3.3,0-5.63-.89-6.88-2.62-.52-.73-.78-1.36-1.05-2.62l5.18-.58Z"/>
      <path class="cls-1" d="M127.65,20.3c0-5.24,3.35-8.56,8.64-8.56s8.64,3.32,8.64,8.51-3.46,8.66-8.66,8.66-8.61-3.35-8.61-8.61ZM132.65,20.27c0,2.9,1.36,4.66,3.64,4.66s3.59-1.7,3.59-4.61-1.33-4.66-3.56-4.66-3.66,1.73-3.66,4.61Z"/>
      <path class="cls-1" d="M145.74,28.3c.16-1.23.21-2.33.21-3.95v-8.06c0-1.81-.05-2.91-.21-3.95h5.21v1.1c0,.16-.03.55-.03.73,1.65-1.57,3.25-2.23,5.39-2.23,1.81,0,3.25.5,4.21,1.47,1.05,1.05,1.49,2.33,1.49,4.4v6.57c0,1.52.08,2.83.21,3.93h-5.44c.16-1.26.21-2.36.21-3.95v-5.37c0-1.05-.1-1.49-.42-1.94-.34-.47-.94-.73-1.73-.73-1.47,0-2.77.92-3.9,2.75v5.29c0,1.49.05,2.59.21,3.95h-5.42Z"/>
      <path class="cls-1" d="M168.22,22.97c.26,1.36,1.15,1.96,2.91,1.96,1.57,0,2.46-.44,2.46-1.26,0-.39-.21-.73-.58-.94-.37-.21-.71-.32-2.15-.6-1.99-.39-3.01-.65-3.87-.94-1.26-.47-2.12-1.07-2.62-1.86-.42-.71-.65-1.6-.65-2.49,0-3.14,2.64-5.05,7.01-5.05,2.49,0,4.35.55,5.57,1.68.86.76,1.28,1.52,1.7,2.98l-5.05.55c-.13-1.07-.78-1.54-2.2-1.54s-2.2.44-2.2,1.12.55.97,3.14,1.54c2.57.55,3.38.78,4.29,1.26,1.7.84,2.51,2.12,2.51,4,0,1.39-.47,2.64-1.33,3.48-1.26,1.26-3.4,1.91-6.2,1.91-3.3,0-5.63-.89-6.88-2.62-.52-.73-.78-1.36-1.05-2.62l5.18-.58Z"/>
      <path class="cls-1" d="M23.9,11.74c-5.29,0-8.64,3.32-8.64,8.56s3.35,8.61,8.61,8.61,8.66-3.46,8.66-8.66-3.35-8.51-8.64-8.51ZM27.76,22.5c-1.46,2.79-4.21,2.89-6.72,1.42-1.49-.87-2.23-3.45-1.77-5.05.24-.83,1.48-2.46,2.38-2.59.13-.02.24-.1.32-.12.08-.03.15-.08.3-.15.1-.05.34-.08.47-.09,1.15-.15,2.5-.15,3.45.58.25.19,1.39,1.31,1.5,1.53.58,1.16.67,3.32.07,4.47Z"/>
      <path class="cls-1" d="M25.12,21.34c-.1-.23-.12-.68.22-.47.15.09.11.25.18.39.11.19.72.42.64.7-.26.31-.53-.35-.8-.35-.17,0-.71.25-.97.28-.41.05-1.68.09-2.04-.02-.17-.06-.29-.2-.47-.22-.02.08-.16.42-.19.45-.1.07-.24.04-.27-.1-.01-.06.26-1.01.31-1.12.03-.06.04-.12.11-.15.52.1.14.39.14.43,0,.09.29.33.39.37.34.15,1.49.1,1.9.06.28-.03.57-.15.85-.23Z"/>
      <path class="cls-1" d="M21.4,18.77c.09-.12.35-.24.5-.16.2.11.24,1.41-.41,1.13-.24-.1-.19-.82-.08-.97Z"/>
      <path class="cls-1" d="M25.33,18.51c.54-.07.38,1.4-.23,1.07-.19-.1-.21-.7-.11-.84.03-.04.29-.22.34-.23Z"/>
    </g>
  </g>
</svg>