<?xml version="1.0" encoding="UTF-8"?>
<svg id="_レイヤー_2" data-name="レイヤー 2" xmlns="http://www.w3.org/2000/svg" viewBox="0 0 199.08 61.7">
  <defs>
    <style>
      .cls-1 {
        fill: #6a6565;
      }

      .cls-2 {
        fill: #db4e58;
      }
    </style>
  </defs>
  <g id="_レイヤー_1-2" data-name="レイヤー 1">
    <g>
      <g>
        <path class="cls-1" d="M5.38,23.73c0,2.44.03,3.38.21,4.52H0c.18-1.14.23-2.18.23-4.44v-13.46c0-1.71-.05-2.57-.21-3.79,1.07.05,1.79.08,3.79.08h7.51c2.29,0,3.14-.03,4.37-.18v4.94c-1.14-.13-2.16-.18-4.34-.18h-5.98v4.26h4.88c2.03,0,3.01-.05,4.16-.18v4.81c-1.14-.13-2.18-.18-4.16-.18h-4.88v3.82Z"/>
        <path class="cls-1" d="M49.45,12.4c-.16,1.22-.21,2.31-.21,3.9v8.03c0,1.79.05,2.86.21,3.9h-5.17v-1.12c0-.13,0-.52.03-.7-1.71,1.61-3.2,2.23-5.4,2.23-1.74,0-3.14-.49-4.13-1.45-1.04-1.04-1.48-2.31-1.48-4.37v-6.52c0-1.51-.08-2.81-.21-3.9h5.4c-.16,1.25-.21,2.34-.21,3.9v5.33c0,1.07.1,1.53.42,1.95.36.47.94.73,1.69.73,1.43,0,2.88-1.01,3.9-2.68v-5.33c0-1.46-.05-2.55-.21-3.9h5.38Z"/>
        <path class="cls-1" d="M62.06,17.08c-1.2-.36-1.85-.49-2.65-.49-1.33,0-2.34.47-3.09,1.4-.49.62-.68,1.17-.78,2.31v4.05c0,1.66.05,2.65.21,3.9h-5.38c.16-1.3.21-2.23.21-3.92v-8c0-1.9-.05-2.81-.21-3.92h5.17v2.05c1.27-1.66,2.83-2.37,5.2-2.37.83,0,1.35.05,2.57.31l-1.25,4.68Z"/>
        <path class="cls-1" d="M67.59,22.95c.26,1.35,1.14,1.95,2.88,1.95,1.56,0,2.44-.44,2.44-1.25,0-.39-.21-.73-.57-.93-.36-.21-.7-.31-2.13-.6-1.97-.39-2.99-.65-3.85-.94-1.25-.47-2.1-1.07-2.6-1.85-.42-.7-.65-1.59-.65-2.47,0-3.12,2.62-5.02,6.96-5.02,2.47,0,4.31.55,5.53,1.66.86.75,1.27,1.51,1.69,2.96l-5.02.55c-.13-1.07-.78-1.53-2.18-1.53s-2.18.44-2.18,1.12.55.96,3.12,1.53c2.55.55,3.35.78,4.26,1.25,1.69.83,2.49,2.1,2.49,3.98,0,1.38-.47,2.62-1.33,3.46-1.25,1.25-3.38,1.9-6.16,1.9-3.27,0-5.59-.88-6.83-2.6-.52-.73-.78-1.35-1.04-2.6l5.15-.57Z"/>
        <path class="cls-1" d="M82.85,21.78c.26,2.11,1.48,3.22,3.53,3.22,1.04,0,1.95-.34,2.62-.96.39-.36.57-.65.78-1.33l4.52,1.27c-.6,1.35-.99,1.95-1.71,2.68-1.48,1.46-3.56,2.21-6.13,2.21s-4.55-.73-6.03-2.21c-1.53-1.56-2.36-3.77-2.36-6.34,0-5.14,3.3-8.55,8.26-8.55,4.05,0,6.89,2.21,7.8,6.08.21.83.31,1.92.39,3.4,0,.1,0,.26.03.52h-11.69ZM89.6,18.2c-.36-1.66-1.48-2.55-3.27-2.55s-2.96.83-3.4,2.55h6.68Z"/>
        <path class="cls-1" d="M105.74,17.39c0-1.25-.75-1.82-2.47-1.82s-2.55.55-2.94,1.82l-4.96-.81c.52-1.53,1.09-2.36,2.18-3.14,1.4-.99,3.33-1.48,5.85-1.48,1.92,0,3.79.36,4.81.91,1.66.91,2.39,2.34,2.39,4.68v7.02c0,1.59.05,2.52.18,3.69h-5.04v-1.2c-1.46,1.12-2.91,1.56-5.04,1.56-1.98,0-3.46-.47-4.5-1.43-.94-.86-1.43-2.11-1.43-3.53,0-1.64.65-2.94,1.9-3.79,1.33-.94,3.07-1.48,5.4-1.69,1.01-.1,1.79-.13,3.66-.18v-.6ZM105.74,21.31c-2.31.05-3.43.18-4.5.52-.94.31-1.51.96-1.51,1.72,0,.93.78,1.48,2.13,1.48,1.07,0,2.24-.39,2.94-.99.6-.52.94-1.22.94-2v-.73Z"/>
        <path class="cls-1" d="M116.26,22.95c.26,1.35,1.14,1.95,2.88,1.95,1.56,0,2.44-.44,2.44-1.25,0-.39-.21-.73-.57-.93-.36-.21-.7-.31-2.13-.6-1.97-.39-2.99-.65-3.85-.94-1.25-.47-2.11-1.07-2.6-1.85-.42-.7-.65-1.59-.65-2.47,0-3.12,2.62-5.02,6.96-5.02,2.47,0,4.31.55,5.53,1.66.86.75,1.27,1.51,1.69,2.96l-5.02.55c-.13-1.07-.78-1.53-2.18-1.53s-2.18.44-2.18,1.12.55.96,3.12,1.53c2.55.55,3.35.78,4.26,1.25,1.69.83,2.49,2.1,2.49,3.98,0,1.38-.47,2.62-1.33,3.46-1.25,1.25-3.38,1.9-6.16,1.9-3.27,0-5.59-.88-6.83-2.6-.52-.73-.78-1.35-1.04-2.6l5.14-.57Z"/>
        <path class="cls-1" d="M126.74,20.3c0-5.2,3.33-8.5,8.58-8.5s8.58,3.3,8.58,8.44-3.43,8.6-8.6,8.6-8.55-3.33-8.55-8.55ZM131.7,20.27c0,2.88,1.35,4.62,3.61,4.62s3.56-1.69,3.56-4.57-1.33-4.62-3.53-4.62-3.64,1.71-3.64,4.57Z"/>
        <path class="cls-1" d="M144.69,28.25c.16-1.22.21-2.31.21-3.92v-8c0-1.79-.05-2.89-.21-3.92h5.17v1.09c0,.16-.03.55-.03.73,1.64-1.56,3.22-2.21,5.35-2.21,1.79,0,3.22.49,4.18,1.46,1.04,1.04,1.48,2.31,1.48,4.36v6.52c0,1.51.08,2.81.21,3.9h-5.4c.16-1.25.21-2.34.21-3.92v-5.33c0-1.04-.1-1.48-.42-1.92-.34-.47-.94-.73-1.72-.73-1.46,0-2.75.91-3.87,2.73v5.25c0,1.48.05,2.57.21,3.92h-5.38Z"/>
        <path class="cls-1" d="M167.02,22.95c.26,1.35,1.14,1.95,2.88,1.95,1.56,0,2.44-.44,2.44-1.25,0-.39-.21-.73-.57-.93-.36-.21-.7-.31-2.13-.6-1.97-.39-2.99-.65-3.85-.94-1.25-.47-2.11-1.07-2.6-1.85-.42-.7-.65-1.59-.65-2.47,0-3.12,2.62-5.02,6.96-5.02,2.47,0,4.31.55,5.53,1.66.86.75,1.27,1.51,1.69,2.96l-5.02.55c-.13-1.07-.78-1.53-2.18-1.53s-2.18.44-2.18,1.12.55.96,3.12,1.53c2.55.55,3.35.78,4.26,1.25,1.69.83,2.49,2.1,2.49,3.98,0,1.38-.47,2.62-1.33,3.46-1.25,1.25-3.38,1.9-6.16,1.9-3.27,0-5.59-.88-6.83-2.6-.52-.73-.78-1.35-1.04-2.6l5.14-.57Z"/>
        <g>
          <path class="cls-1" d="M23.73,11.8c-5.25,0-8.58,3.3-8.58,8.5s3.33,8.55,8.55,8.55,8.6-3.43,8.6-8.6-3.33-8.44-8.58-8.44ZM27.57,22.49c-1.45,2.77-4.18,2.87-6.67,1.41-1.48-.86-2.22-3.42-1.76-5.02.24-.83,1.47-2.45,2.37-2.57.13-.02.24-.1.32-.12.08-.03.15-.08.29-.15.1-.05.34-.08.47-.09,1.14-.15,2.48-.15,3.43.57.25.19,1.38,1.3,1.49,1.52.57,1.15.67,3.29.07,4.44Z"/>
          <g>
            <path class="cls-1" d="M24.94,21.33c-.1-.23-.12-.68.22-.47.15.09.1.25.18.38.11.19.71.42.63.69-.26.31-.52-.35-.8-.35-.17,0-.71.25-.97.28-.41.05-1.67.09-2.02-.02-.17-.06-.29-.2-.47-.22-.02.08-.16.42-.19.44-.1.07-.24.04-.26-.1-.01-.06.26-1,.31-1.11.03-.06.04-.12.1-.15.51.1.14.38.14.43,0,.09.29.32.39.37.34.15,1.48.1,1.89.06.28-.03.57-.15.84-.23Z"/>
            <path class="cls-1" d="M21.25,18.79c.09-.12.34-.24.49-.16.2.11.24,1.4-.41,1.12-.24-.1-.19-.82-.08-.96Z"/>
            <path class="cls-1" d="M25.15,18.52c.54-.07.37,1.39-.22,1.06-.19-.1-.21-.69-.11-.83.03-.04.29-.22.34-.23Z"/>
          </g>
        </g>
      </g>
      <g>
        <path class="cls-2" d="M95.34,50.24c.26,0,.41-.22.43-.45.01-.21-.1-.45-.38-.47-1.22-.07-2.55-1.23-3.74-3.25-.36-.61-.71-1.3-1.03-2.05-.67-1.57-1.18-3.39-1.53-5.41,4.83-8.04,9.17-22.35,7.02-26-.32-.55-.82-.94-1.4-1.1-.58-.16-1.19-.08-1.71.23-3.9,2.3-6.48,16.52-4.86,26.73-.88-.15-1.72.01-2.57.52-1.58.94-2.36,2.67-1.7,3.78.15.26.39.43.66.49.3.07.62,0,.9-.19.89-.59,1.88-1.71,2.95-3.33.34,1.72.8,3.28,1.37,4.64.32.76.69,1.49,1.08,2.16,1.37,2.31,2.97,3.62,4.5,3.69,0,0,.01,0,.02,0ZM88.88,37.27c-.63-4.72-.44-10.3.53-15.35.94-4.94,2.45-8.45,4.05-9.39.19-.12.41-.17.63-.17.12,0,.25.02.37.06.34.1.64.35.84.69,1.88,3.18-2.07,16.44-6.42,24.17ZM87.61,39.33c-.98,1.45-1.88,2.46-2.7,3,0,0,0,0,0,0-.06.04-.11.06-.15.05-.03,0-.06-.03-.09-.08-.38-.65.23-1.86,1.23-2.45.48-.28.94-.52,1.6-.52.04,0,.08,0,.12,0Z"/>
        <path class="cls-2" d="M111.73,32.74s.02,0,.03,0c.59-.02,1.06-.4,1.21-.76.17-.42.1-.74-.16-.86-.23-.17-.64-.13-.97.08-.19.1-.31.33-.28.53,0,0-.02.02-.04.03-.2.17-.28.43-.21.65.03.15.13.32.42.32Z"/>
        <path class="cls-2" d="M199.08,23.33s0-.04,0-.05l-.34-.68s-.06-.05-.1-.03c-1.46.73-3.13,1.99-4.73,3.55l-.06-.1c-.51-.9-1.1-1.66-1.68-2.4l-.16-.2c-.11-.14-.22-.28-.33-.42.01-.03.03-.06.04-.1,0-.02,0-.04,0-.05,0-.02-.02-.03-.04-.04l-.21-.08s-.06-.08-.1-.12c1.49-2.78,1.93-4.53,1.39-5.48-.15-.27-.41-.46-.72-.52-.31-.07-.65,0-.95.17-1.67.95-2.3,3.38-1.33,5.1.25.45.55.87.85,1.27-1.6,3.73-3.74,6.8-5.31,7.55-1.07.51-2.57.55-3.62.11,1.48-1.37,2.37-3.13,1.97-3.95-.27-.56-.9-.71-1.62-.38-1.42.65-2.55,2.31-3.14,4.58-.01-.62-.01-1.27,0-1.94,3.03-3.87,7.43-10.05,10.68-15.8,3.48-6.13,4.8-10.15,3.93-11.97-.64-1.35-1.97-1.71-3.53-.96-2.91,1.39-5.75,5.09-7.99,10.42-2.29,5.44-3.69,11.87-3.97,17.47l-.06-.04s-.07-.01-.09.01c-.84.99-2.1,1.97-2.87,2.23-.65.22-1.04-.08-1.5-.41-.44-.33-1.06-.77-1.88-.49-.88.3-1.74,1.26-2.44,2.74.02-.28.04-.54.06-.78.02-.05.02-.1,0-.16.04-.65.06-1.21.05-1.66,0-.02,0-.04-.02-.05-.01-.01-.04-.03-.05-.02l-.8.02s-.07.03-.07.07c0,.44-.01.97-.04,1.52-1.89,2.47-4.57,4.38-6.81,4.83.9-1.11,1.31-2.46,1.05-3.47-.13-.53-.42-.94-.84-1.19-.5-.3-1.15-.36-1.88-.18-.81.2-1.5.69-1.92,1.37-.26.42-.4.89-.43,1.36-2.34,1.82-5.52,1.72-6.7.79-.27-.33-.62-.54-.91-.55h-.02c-.14,0-.26.05-.35.14-.09.1-.13.23-.1.37.05.27.33.56.68.73,0,1.99-1.69,3.84-2.57,3.96-.11.02-.18,0-.21-.25-.1-.75.25-1.89.81-2.65.01-.02.02-.03.01-.05,0-.02-.01-.04-.03-.05l-.65-.45s-.07-.02-.1.02c-.08.1-.14.19-.2.29v.02c-.08.12-.15.23-.21.36-1.02,1.72-2.95,3.66-3.75,3.77-.11.02-.16,0-.19-.19-.11-.86,1.07-3.9,3.26-6.1.01-.01.02-.03.02-.05,0-.02,0-.04-.02-.05l-.55-.54s-.07-.03-.1,0c-.62.62-1.17,1.33-1.65,2.05,0,0-.01,0-.01,0-1.63,1.19-6.63,4.32-8.26,4.34h-.01c-.18,0-.31-.04-.39-.12-.06-.07-.09-.16-.07-.29.02-.26.1-.55.19-.83.1-.33.2-.68.2-.99,0-.26-.11-.52-.31-.71-.2-.2-.47-.31-.74-.31h-.01c-.94.01-2.38.82-4.41,2.46.69-1.12,1.34-2.06,2.47-3.42.01-.01.02-.03.02-.05,0-.02-.01-.04-.03-.05l-.61-.49s-.07-.02-.1,0c-.13.15-.24.29-.35.43-.02-.03-.04-.05-.07-.04-1.02.29-4,1.27-7.71,2.64.45-1.05.81-1.92,1.07-2.57.11-.27.2-.5.28-.68,0-.02,0-.04,0-.05,0-.02-.02-.03-.04-.04l-.74-.29s-.06,0-.08.02c-.62.83-4.33,2.55-5.82,2.55h-.05c-.09,0-.16-.02-.19-.05-.02-.02-.03-.06-.03-.12.02-.73,1.13-1.44,2.23-1.42.41.01.75.08,1.03.21.03.02.07,0,.09-.03l.41-.65s.01-.04,0-.06c0-.02-.02-.03-.04-.04-.4-.2-.9-.31-1.47-.33-.35,0-.7.04-1.04.14l-.17-.19s-.07-.03-.1,0c-2.59,2.18-6.01,3.94-7.79,4.01-.21.01-.39-.05-.52-.16-.11-.1-.17-.25-.18-.42-.02-.55.09-1.28,1.03-2.56.18-.11.35-.21.53-.32.02-.01.03-.03.03-.05,0-.02,0-.04-.02-.06l-.49-.55s-.06-.03-.09-.01c-1.14.7-2.29,1.39-3.4,2.07-1.69,1.02-3.28,1.98-4.77,2.92-.14-.78-.33-1.51-.52-2.21l-.1-.38c-.07-.26-.14-.52-.21-.78,2.45-1.98,3.54-3.41,3.42-4.49-.04-.31-.2-.58-.46-.76-.26-.18-.59-.25-.94-.21-.91.1-1.79.62-2.41,1.42-.47.61-.75,1.33-.81,2.06h-.01s-.04-.03-.05-.03c-.02,0-.04.01-.05.03-1.31,1.68-5.11,5.29-7.41,5.93-.29.08-.49.08-.62,0-.11-.06-.18-.18-.23-.36-.12-.42-.1-.98.05-1.56,1.11-.17,2.01-.65,2.43-1.27.22-.33.28-.69.18-1.04-.08-.28-.23-.49-.45-.61-.25-.14-.57-.16-.92-.05-1.5.41-2.69,3-2.2,4.78.19.7.68,1.07,1.36,1.07.2,0,.41-.03.64-.09,2.26-.62,5.69-3.72,7.38-5.65.12.75.31,1.48.5,2.19v.02c.23.81.45,1.65.58,2.53-5.05,3.22-7.14,5.13-6.99,6.41.09.77.84,1.24,1.91,1.24.14,0,.3,0,.45-.03,3.54-.41,5.95-3.51,5.63-7.22,1.61-1.01,3.39-2.09,5.26-3.23.38-.23.77-.47,1.15-.7-.23.55-.34,1.08-.32,1.59.02.41.18.78.47,1.04.29.27.69.41,1.12.41.03,0,.05,0,.08,0,1.43-.06,3.7-1.02,5.89-2.43.02.24.1.45.25.62.21.22.51.34.86.35.02,0,.04,0,.06,0,1.29,0,3.64-.93,5.18-1.86-.28.69-.63,1.53-1.05,2.47-5.07,1.91-9.63,3.85-13.56,5.75-10.13,4.92-15.32,9.3-15.41,13.02-.03,1.17.5,2.26,1.47,3.06.97.79,2.32,1.25,3.81,1.28.13,0,.26,0,.4,0,5.55,0,10.78-2.87,15.57-8.52,3.06-3.62,5.89-8.29,8.4-13.88,3.15-1.18,5.81-2.09,7.39-2.6-.85,1.16-1.33,2.01-1.86,2.95-.13.24-.28.49-.43.75l-.1.18s0,0,0,0c-.11.2-.09.4.06.52.08.07.2.11.33.11.14,0,.29-.05.42-.16,2.61-2.19,4.64-3.5,5.45-3.51h0c.12,0,.19.06.19.13,0,.2-.07.46-.16.76-.09.3-.19.63-.22.97-.03.37.08.71.31.96.26.28.64.43,1.09.43,0,0,.02,0,.03,0,1.49-.02,4.93-1.97,7.23-3.45-.62,1.28-.94,2.43-.86,3.02.04.33.19.6.41.77.18.14.4.21.64.21.06,0,.12,0,.18-.01,1.01-.13,2.29-1.45,3.04-2.32,0,.11,0,.21.02.29.05.36.2.65.43.83.22.17.51.24.83.2,1.44-.19,3.07-2.35,3.35-4.4,1.7.73,4.44.54,6.61-.9.04.13.07.25.13.39-.15.47-.19.9-.1,1.24.09.35.29.62.58.79.21.13.46.19.73.19.15,0,.3-.02.45-.06.36-.09.72-.26,1.07-.49.03,0,.06,0,.09,0,2.37,0,5.35-1.69,7.67-4.25-.18,2.02-.48,4.12-.61,4.85,0,.02,0,.04.01.05.01.02.03.03.05.03l.78.09h0s.07-.03.07-.06v-.07c.06-.32.12-.74.19-1.23.58-3.05,1.96-5.66,3.21-6.08.35-.12.6.05,1.04.37l.02.02c.52.37,1.23.88,2.32.52.72-.24,1.79-1.01,2.68-1.89-.05,2.54.13,4.88.6,6.83h0c.03.14.13.24.27.28.05.01.09.02.14.02.14,0,.29-.05.39-.15.1-.1.14-.23.11-.37-.53-4.35,1.1-7.94,2.91-8.76.35-.16.39-.07.4-.04.21.44-.91,2.24-2.19,3.26-.13.1-.21.26-.2.41,0,.13.06.25.17.33,1.26.9,3.5,1.01,5.11.25,1.71-.82,3.88-3.79,5.56-7.54.03.04.06.08.09.12l.13.17c.54.69,1.09,1.4,1.55,2.22.06.11.12.22.17.33v.02s-.06.07-.06.07c-.22.23-.44.46-.65.71-2.84,3.2-4.23,6.05-3.55,7.25.16.29.42.49.75.58.14.04.29.06.45.06.44,0,.94-.15,1.45-.44,2.85-1.62,3.97-4.93,2.73-8.06,1.59-1.6,3.27-2.88,4.73-3.62.02,0,.03-.02.04-.04ZM189.75,34.39c-.39-.7.8-3.26,3.42-6.19.11-.12.26-.29.41-.46.84,2.61-.13,5.22-2.45,6.53-.65.37-1.22.42-1.39.12ZM190.79,21.76c-.07-.11-.14-.23-.21-.35-.73-1.29-.26-3.16.96-3.85.09-.05.17-.07.23-.07.08,0,.14.03.18.09.23.41.22,1.47-1.16,4.17ZM178.98,27.51c.37-5.46,1.77-11.41,3.86-16.37,2.15-5.12,4.83-8.65,7.53-9.94.41-.19.77-.29,1.09-.29.11,0,.22.01.32.04.38.09.68.36.89.8.71,1.5-.67,5.45-3.89,11.13-2.53,4.46-6.18,9.91-9.8,14.63ZM158.94,36.74c-.15,0-.31-.05-.38-.24.12.09.25.17.38.24ZM159.24,34.58c.36-.44.74-.73,1.11-.82.15-.04.26-.04.39-.01.04.01.08-.02.08-.05l.16-.75s-.02-.08-.05-.08c-.23-.05-.52-.04-.8.03-.56.14-1.15.56-1.61,1.14-.04.05-.07.09-.11.14,0-.96.66-1.78,1.66-2.03.43-.11.79-.1,1.06.03.27.12.45.36.53.69.24.94-.44,2.46-1.49,3.32-.62-.08-1.11-.37-1.42-.82.13-.27.29-.54.48-.77ZM96.53,46.21c-.13-1.16,3.19-3.44,6.15-5.33.05,3.06-1.92,5.42-4.83,5.76-.75.09-1.28-.09-1.32-.43ZM104.81,31.43c.17,0,.28.07.29.18.05.47-.37,1.44-2.69,3.38-.02-.13-.04-.27-.06-.4-.08-.71.14-1.47.6-2.08.46-.61,1.11-1.01,1.77-1.08.03,0,.05,0,.08,0ZM93.47,37.03c.32-.6.72-.99,1.09-1.09.04-.01.08-.02.11-.02s.05,0,.07.02c.03.01.04.04.05.08.02.08,0,.17-.05.26-.17.29-.66.58-1.28.75ZM99.25,60.8c-.12,0-.24,0-.37,0-1.24-.03-2.37-.4-3.17-1.03-.8-.63-1.22-1.48-1.2-2.39.08-3.32,5.23-7.55,14.89-12.23,4.63-2.24,9.38-4.15,12.61-5.38-2.39,5.15-5.04,9.47-7.89,12.83-4.62,5.45-9.62,8.2-14.87,8.2Z"/>
      </g>
    </g>
  </g>
</svg>