<?xml version="1.0" encoding="UTF-8"?>
<svg id="_レイヤー_2-2" data-name="_レイヤー_2" xmlns="http://www.w3.org/2000/svg" viewBox="0 0 48.36 48.36">
  <defs>
    <style>
      .cls-1 {
        fill: none;
      }

      .cls-2 {
        fill: #fff;
      }

      .cls-3 {
        fill: #6a6565;
      }
    </style>
  </defs>
  <rect class="cls-2" width="48.36" height="48.36"/>
  <g id="_レイヤー_1-2">
    <g>
      <g>
        <path class="cls-3" d="M19.95,1.66c5.22-.57,11.66-.41,16.18,2.45,1.61,1.02,8,7.47,8.7,9.06,1.75,3.94,2.6,13.12,1.6,17.29-2.71,11.22-14.18,18.36-25.45,15.57C7.36,42.65.43,33.11,1.74,18.96c.46-5.1,6.3-13.06,10.99-15,1.76-.73,5.44-2.11,7.22-2.3ZM20.46,3.21c-.59.06-1.71.16-2.2.37-.68.29-.89.44-1.29.56s-.99.57-1.61.64c-4.24.46-10.2,7.89-11.43,11.75-2.37,7.42.78,19.54,7.6,23.77,11.53,7.15,24.35,7.03,31.5-5.76,2.97-5.31,2.78-15.38.25-20.85-.5-1.07-5.67-6.41-6.81-7.34-4.35-3.52-10.63-3.67-16.01-3.14Z"/>
        <g>
          <path class="cls-3" d="M31.32,29.11c-.47-1.15-.51-3.41,1.17-2.32.75.48.49,1.28.87,1.96.54.96,3.52,2.21,3.08,3.56-1.33,1.51-2.59-1.82-3.96-1.88-.85-.04-3.59,1.14-4.9,1.27-2.07.2-8.38.24-10.15-.39-.85-.3-1.42-1.03-2.32-1.15-.1.39-.84,2.08-1.02,2.2-.52.36-1.21.14-1.31-.53-.04-.29,1.45-5.01,1.69-5.52.13-.3.21-.61.55-.76,2.57.57.65,1.95.65,2.17,0,.46,1.41,1.67,1.92,1.9,1.69.79,7.44.72,9.49.54,1.41-.13,2.89-.67,4.25-1.03v-.02Z"/>
          <path class="cls-3" d="M13.13,15.81c.47-.6,1.76-1.16,2.5-.72.97.58,1,7.06-2.22,5.56-1.19-.55-.84-4.13-.28-4.84Z"/>
          <path class="cls-3" d="M32.77,15.02c2.71-.27,1.69,7.05-1.27,5.3-.92-.54-.96-3.51-.46-4.21.14-.19,1.5-1.06,1.73-1.09Z"/>
        </g>
      </g>
      <path class="cls-1" d="M20.46,3.21c5.38-.53,11.66-.38,16.01,3.14,1.14.92,6.32,6.27,6.81,7.34,2.53,5.47,2.71,15.54-.25,20.85-7.15,12.8-19.97,12.91-31.5,5.76C4.71,36.06,1.56,23.94,3.93,16.52c1.23-3.85,7.19-11.29,11.43-11.75.62-.07,1.23-.52,1.61-.64s.61-.27,1.29-.56c.49-.21,1.61-.31,2.2-.37h0ZM13.13,15.81c-.56.72-.91,4.29.28,4.84,3.22,1.5,3.19-4.99,2.22-5.56-.74-.44-2.03.12-2.5.72ZM32.77,15.02c-.23.02-1.59.89-1.73,1.09-.51.7-.46,3.67.46,4.21,2.97,1.75,3.99-5.57,1.27-5.3ZM31.32,29.11c-1.36.36-2.84.91-4.25,1.03-2.04.18-7.79.25-9.49-.54-.51-.24-1.92-1.45-1.92-1.9,0-.22,1.92-1.6-.65-2.17-.34.14-.41.46-.55.76-.23.51-1.73,5.24-1.69,5.52.1.68.79.89,1.31.53.18-.12.92-1.8,1.02-2.2.89.12,1.47.85,2.32,1.15,1.77.63,8.09.59,10.15.39,1.3-.13,4.05-1.3,4.9-1.27,1.37.06,2.64,3.39,3.96,1.88.44-1.35-2.55-2.6-3.08-3.56-.38-.68-.12-1.47-.87-1.96-1.68-1.09-1.64,1.18-1.17,2.32v.02Z"/>
    </g>
  </g>
</svg>